<svg width="93" height="13" viewBox="0 0 93 13" fill="none" xmlns="http://www.w3.org/2000/svg">
<path d="M6.18187 0L7.64121 4.83688H12.3637L8.54313 7.82624L10.0025 12.6631L6.18187 9.67376L2.36126 12.6631L3.8206 7.82624L0 4.83688H4.72253L6.18187 0Z" fill="#D8A390"/>
<path d="M26.1819 0L27.6412 4.83688H32.3637L28.5431 7.82624L30.0025 12.6631L26.1819 9.67376L22.3613 12.6631L23.8206 7.82624L20 4.83688H24.7225L26.1819 0Z" fill="#D8A390"/>
<path d="M46.1819 0L47.6412 4.83688H52.3637L48.5431 7.82624L50.0025 12.6631L46.1819 9.67376L42.3613 12.6631L43.8206 7.82624L40 4.83688H44.7225L46.1819 0Z" fill="#D8A390"/>
<path d="M66.1819 0L67.6412 4.83688H72.3637L68.5431 7.82624L70.0025 12.6631L66.1819 9.67376L62.3613 12.6631L63.8206 7.82624L60 4.83688H64.7225L66.1819 0Z" fill="#D8A390"/>
<path d="M86.1819 0L87.6412 4.83688H92.3637L88.5431 7.82624L90.0025 12.6631L86.1819 9.67376L82.3613 12.6631L83.8206 7.82624L80 4.83688H84.7225L86.1819 0Z" fill="#D8A390"/>
</svg>
